<mxfile host="app.diagrams.net" modified="2024-03-21T12:55:27.555Z" agent="Mozilla/5.0 (Windows NT 10.0; Win64; x64) AppleWebKit/537.36 (KHTML, like Gecko) Chrome/122.0.0.0 Safari/537.36" version="24.0.7" etag="BeY5E7vChJBd1_WbXdTz" type="device">
  <diagram id="_NY2y8mwy3ACNvXMFpVj" name="第 1 页">
    <mxGraphModel dx="1654" dy="-351" grid="1" gridSize="10" guides="1" tooltips="1" connect="1" arrows="1" fold="1" page="0" pageScale="1" pageWidth="827" pageHeight="1169" background="none" math="0" shadow="0">
      <root>
        <mxCell id="0" />
        <mxCell id="1" parent="0" />
        <mxCell id="Mg7q18XqM4iMnXz_QVZH-42" value="package" style="shape=folder;fontStyle=1;spacingTop=10;tabWidth=40;tabHeight=14;tabPosition=left;html=1;whiteSpace=wrap;" vertex="1" parent="1">
          <mxGeometry x="-485" y="940" width="475" height="795" as="geometry" />
        </mxCell>
        <mxCell id="Mg7q18XqM4iMnXz_QVZH-12" value="" style="shape=folder;fontStyle=1;spacingTop=10;tabWidth=40;tabHeight=14;tabPosition=left;html=1;whiteSpace=wrap;" vertex="1" parent="1">
          <mxGeometry x="-390" y="1210" width="240" height="320" as="geometry" />
        </mxCell>
        <mxCell id="Mg7q18XqM4iMnXz_QVZH-1" value="" style="shape=folder;fontStyle=1;spacingTop=10;tabWidth=40;tabHeight=14;tabPosition=left;html=1;whiteSpace=wrap;" vertex="1" parent="1">
          <mxGeometry x="-392.37" y="1000" width="144.75" height="60" as="geometry" />
        </mxCell>
        <mxCell id="Mg7q18XqM4iMnXz_QVZH-10" value="" style="shape=folder;fontStyle=1;spacingTop=10;tabWidth=40;tabHeight=14;tabPosition=left;html=1;whiteSpace=wrap;" vertex="1" parent="1">
          <mxGeometry x="-360" y="1250" width="100" height="50" as="geometry" />
        </mxCell>
        <mxCell id="Mg7q18XqM4iMnXz_QVZH-11" value="" style="shape=folder;fontStyle=1;spacingTop=10;tabWidth=40;tabHeight=14;tabPosition=left;html=1;whiteSpace=wrap;" vertex="1" parent="1">
          <mxGeometry x="-360" y="1320" width="140" height="190" as="geometry" />
        </mxCell>
        <mxCell id="Mg7q18XqM4iMnXz_QVZH-13" value="file" style="shape=folder;fontStyle=1;spacingTop=10;tabWidth=40;tabHeight=14;tabPosition=left;html=1;whiteSpace=wrap;" vertex="1" parent="1">
          <mxGeometry x="-350" y="1360" width="60" height="50" as="geometry" />
        </mxCell>
        <mxCell id="Mg7q18XqM4iMnXz_QVZH-14" value="&lt;p style=&quot;font-weight: 400; text-wrap: nowrap; font-size: 14px; margin: 4px 0px 0px;&quot;&gt;&lt;br&gt;&lt;b&gt;&lt;br&gt;&lt;/b&gt;&lt;/p&gt;&lt;p style=&quot;font-weight: 400; text-wrap: nowrap; font-size: 14px; margin: 4px 0px 0px;&quot;&gt;&lt;br&gt;&lt;/p&gt;" style="shape=folder;fontStyle=1;spacingTop=10;tabWidth=40;tabHeight=14;tabPosition=left;html=1;whiteSpace=wrap;" vertex="1" parent="1">
          <mxGeometry x="-390" y="1100" width="130" height="60" as="geometry" />
        </mxCell>
        <mxCell id="Mg7q18XqM4iMnXz_QVZH-27" value="controller" style="text;html=1;align=center;verticalAlign=middle;whiteSpace=wrap;rounded=0;fontSize=16;" vertex="1" parent="1">
          <mxGeometry x="-379.99" y="1015" width="60" height="30" as="geometry" />
        </mxCell>
        <mxCell id="Mg7q18XqM4iMnXz_QVZH-28" value="dao" style="text;html=1;align=center;verticalAlign=middle;whiteSpace=wrap;rounded=0;fontSize=16;" vertex="1" parent="1">
          <mxGeometry x="-400" y="1110" width="60" height="30" as="geometry" />
        </mxCell>
        <mxCell id="Mg7q18XqM4iMnXz_QVZH-30" value="data" style="text;html=1;align=center;verticalAlign=middle;whiteSpace=wrap;rounded=0;fontSize=16;" vertex="1" parent="1">
          <mxGeometry x="-400" y="1220" width="60" height="30" as="geometry" />
        </mxCell>
        <mxCell id="Mg7q18XqM4iMnXz_QVZH-33" value="configuration" style="text;html=1;align=center;verticalAlign=middle;whiteSpace=wrap;rounded=0;fontSize=16;" vertex="1" parent="1">
          <mxGeometry x="-340" y="1260" width="60" height="30" as="geometry" />
        </mxCell>
        <mxCell id="Mg7q18XqM4iMnXz_QVZH-34" value="Impl" style="text;html=1;align=center;verticalAlign=middle;whiteSpace=wrap;rounded=0;fontSize=16;" vertex="1" parent="1">
          <mxGeometry x="-370" y="1330" width="60" height="30" as="geometry" />
        </mxCell>
        <mxCell id="Mg7q18XqM4iMnXz_QVZH-35" value="mongodb" style="shape=folder;fontStyle=1;spacingTop=10;tabWidth=40;tabHeight=14;tabPosition=left;html=1;whiteSpace=wrap;" vertex="1" parent="1">
          <mxGeometry x="-345" y="1430" width="70" height="50" as="geometry" />
        </mxCell>
        <mxCell id="Mg7q18XqM4iMnXz_QVZH-36" value="" style="shape=folder;fontStyle=1;spacingTop=10;tabWidth=40;tabHeight=14;tabPosition=left;html=1;whiteSpace=wrap;" vertex="1" parent="1">
          <mxGeometry x="-390" y="1560" width="220" height="130" as="geometry" />
        </mxCell>
        <mxCell id="Mg7q18XqM4iMnXz_QVZH-38" value="task" style="text;html=1;align=center;verticalAlign=middle;whiteSpace=wrap;rounded=0;fontSize=16;" vertex="1" parent="1">
          <mxGeometry x="-392.37" y="1570" width="60" height="30" as="geometry" />
        </mxCell>
        <mxCell id="Mg7q18XqM4iMnXz_QVZH-39" value="" style="shape=folder;fontStyle=1;spacingTop=10;tabWidth=40;tabHeight=14;tabPosition=left;html=1;whiteSpace=wrap;" vertex="1" parent="1">
          <mxGeometry x="-360" y="1605" width="70" height="50" as="geometry" />
        </mxCell>
        <mxCell id="Mg7q18XqM4iMnXz_QVZH-40" value="parser" style="text;html=1;align=center;verticalAlign=middle;whiteSpace=wrap;rounded=0;fontSize=16;" vertex="1" parent="1">
          <mxGeometry x="-360" y="1620" width="60" height="30" as="geometry" />
        </mxCell>
        <mxCell id="Mg7q18XqM4iMnXz_QVZH-43" value="org.texxttechnology.parliament_browser_6_4" style="text;html=1;align=center;verticalAlign=middle;whiteSpace=wrap;rounded=0;fontSize=16;" vertex="1" parent="1">
          <mxGeometry x="-340" y="960" width="60" height="30" as="geometry" />
        </mxCell>
      </root>
    </mxGraphModel>
  </diagram>
</mxfile>
